# xmcd
#
# Track frame offsets: 
#        150
#        16074
#        27633
#        47311
#        65986
#        78054
#        93396
#        114945
#        124429
#        135083
#        149224
#        162754
#        172068
#        185788
#
# Disc length: 2805 seconds
#
# Revision: 0
# Processed by: cddbd v1.5.1PL0 Copyright (c) Steve Scherf et al.
# Submitted via: ExactAudioCopy v0.95a5
#
DISCID=c00af30e
DTITLE=Steve Earl and The Del McCoury Band - The Mountain
DYEAR=1998
DGENRE=Bluegrass
TTITLE0=Texas Eagle
TTITLE1=Yours Forever Blue
TTITLE2=Carrie Brown
TTITLE3=I'm Still In Love With You
TTITLE4=The Graveyard Shift
TTITLE5=Harlan Man
TTITLE6=The Mountain
TTITLE7=Outlaw's Honeymoon
TTITLE8=Connemara Breakdown
TTITLE9=Leroy's Dustbowl Blues
TTITLE10=Dixieland
TTITLE11=Paddy On The Beat
TTITLE12=Long, Lonesome Highway Blues
TTITLE13=Pilgrim
EXTD=
EXTT0=
EXTT1=
EXTT2=
EXTT3=
EXTT4=
EXTT5=
EXTT6=
EXTT7=
EXTT8=
EXTT9=
EXTT10=
EXTT11=
EXTT12=
EXTT13=
PLAYORDER=
